<svg version="1.2" xmlns="http://www.w3.org/2000/svg" viewBox="0 0 1920 1080" width="1920" height="1080">
	<style>
		.s0 { fill: #000000 } 
	</style>
	<g id="Camada 1">
		<g id="&lt;Group&gt;">
			<g id="&lt;Group&gt;">
				<path id="&lt;Path&gt;" class="s0" d="m53.07 446.33q9.47 151.86 18.93 303.72c1.63 26.18 21.15 48.56 48.56 48.56 29.02 0 45.21-22.43 48.56-48.56 5.42-42.26 9.84-84.8 16.42-126.9 3.61-23.08 8.45-61.6 34.25-70.11 2.24-0.73 8.2-2.41 10.89-0.89-2.76-1.56-1.4 1.16-0.47 2.13 10.41 10.92 16.71 30.14 21.94 43.96 13.54 35.8 20.06 72.74 20.24 110.95 0.25 54.91 80.1 65.73 95.38 12.91 12.52-43.28 23.7-87.24 37.9-130 5.75-17.31 14.58-40.91 32.47-41 29.93-0.16 45.29 36.18 51.71 59.55 11.93 43.48 11.43 89.31 21.79 133.18 14.35 60.8 108.02 35.06 93.65-25.82-13.2-55.89-10.92-113.86-34.21-167.32-22.68-52.11-68.33-91.64-126.46-95.86-52.5-3.8-97.09 30.03-118.59 76.08-24.23 51.93-36.04 110.52-51.91 165.37q47.69 6.45 95.38 12.91c-0.42-93.28-38.29-276.65-166.62-251.61-55.44 10.82-90.89 58.28-104.99 110.28-15.83 58.38-18.21 122.3-25.89 182.19q48.56 0 97.12 0-9.46-151.86-18.93-303.72c-1.63-26.18-21.15-48.56-48.56-48.56-25.02 0-50.2 22.25-48.56 48.56z"/>
			</g>
			<g id="&lt;Group&gt;">
				<path id="&lt;Path&gt;" class="s0" d="m821.6 460.48c-63.47-43.31-137.46 3.35-181.13 52.02-23.65 26.37-40.14 58.09-37.05 94.39 3.07 35.95 21.51 68.61 49.39 91.24 49.09 39.83 137.8 68.87 194.42 29.11 63.39-44.5 58.53-137.63 28.21-199.76-24.2-49.59-104.74-14.83-88.76 37.42 16.34 53.39 47.21 107.85 98.71 134.26 54.56 27.98 117.36 23.48 164.62-16.06 20.13-16.84 17.39-51.29 0-68.68-19.92-19.92-48.49-16.88-68.67 0 4.56-3.81-2.93 1.59-4.68 2.54-6.2 3.36 7.92-1.18-4.66 1.74-3.27 0.76-6.52 1.8-9.86 2.22 6.73-0.86-2.48-0.41-4.9-0.45-10.18-0.16-21.2-3.53-31.77-10.3-22.12-14.18-36.7-43.52-45.14-71.09q-44.37 18.71-88.75 37.42c7.14 14.64 9.66 29.61 8.48 45.95-0.41 5.69-1.56 12.47-3.92 18.73 1.08-2.86-8.68 10.61-2.27 5.37-4.82 3.94-6.63 2.34-9.75 2.23-8.52-0.32-10.38-0.68-20.88-3.45-17.02-4.5-32.56-9.38-46.69-19.94-8.78-6.57-15.04-14.11-16.8-25.91 0.96 6.43 0.87-6.3 0.17-2.76-0.83 4.19 3.14-7.86 0.72-2.88 3.86-7.93 5.02-8.91 10.43-14.72 11.36-12.21 23.53-24.12 37.13-32.39 3.43-2.08 4.42-2.84 7.1-3.88 0.93-0.36 11.32-3.23 6-1.97 6.67-1.58 5.86-0.24 11.28 3.46 21.67 14.79 53.86 4.09 66.44-17.42 14.04-24.01 4.3-51.62-17.42-66.44z"/>
			</g>
			<g id="&lt;Group&gt;">
				<path id="&lt;Path&gt;" class="s0" d="m974.29 329.99c-8.37 95.84-14.86 203.02 37.89 288.56 25.59 41.51 66.26 74.53 116.51 77.12 50.63 2.6 93.96-26.55 112.17-72.99 9.3-23.7-10.19-54.33-33.91-59.73-27.92-6.36-49.78 8.53-59.74 33.91q3.42-7.59 0.87-2.96-2.17 3.42 0.59-0.3c4.88-1.79-1.9 1.41-3.77 3.35 6.92-7.18 2.09-0.94-1.1-0.13-5.53 1.4 8.2-1.6-0.84 0.31-3.04 0.65-13.53 1.52-2.46 1.28-2.6 0.05-5.28 0.13-7.87 0.3-10.69 0.7 7.55 2.9-2.66-0.16-2.49-0.75-5.01-1.34-7.47-2.22 9.59 3.42-13.61-9.53-5.91-3.39-5.93-4.73-11.26-10.37-16.07-16.22 5.58 6.79-2.97-4.74-3.26-5.2q-2.5-3.93-4.78-7.99-3.41-6.07-6.36-12.38c-2.44-5.21-0.81-1.55-2.27-5.42-6.46-17.2-11.11-34.98-14.23-53.08-1.58-9.12-1.41-8.11-2.39-19.98-0.76-9.26-1.22-18.53-1.44-27.81-0.9-38.37 2.29-76.68 5.62-114.87 2.22-25.38-23.92-49.67-48.56-48.56-28.2 1.26-46.18 21.38-48.56 48.56z"/>
			</g>
			<g id="&lt;Group&gt;">
				<path id="&lt;Path&gt;" class="s0" d="m896.55 452.62c71.01 14.48 143.63 21.04 216.07 18.16 25.35-1.01 49.76-21.61 48.56-48.56-1.14-25.45-21.38-49.65-48.56-48.56-33.39 1.33-66.81 0.8-100.13-1.82q-12.73-1-25.43-2.38c-3.9-0.43-7.8-0.92-11.71-1.37-10.6-1.2 8.85 1.36-2.67-0.34-16.85-2.49-33.62-5.37-50.31-8.78-24.82-5.06-53.64 7.17-59.74 33.92-5.51 24.22 7.3 54.31 33.92 59.73z"/>
			</g>
			<g id="&lt;Group&gt;">
				<path id="&lt;Path&gt;" class="s0" d="m1505.9 388.03c-35.82-57.33-122.87-62.72-182.07-46.67-61.48 16.66-116.07 67.58-103.75 135.93 11.51 63.83 81.57 91.78 138.87 93.53 14.47 0.44 28.94-0.33 43.4-0.39 7.22-0.03 14.44 0.09 21.65 0.62 2.81 0.2 11.63-1.11 3.79 0.3q2.34 0.54 4.68 1.08-6.69-3.47-2.57-1.17c5.44 3.53-7.38-8.66-0.8-0.49-0.77-0.96-6.46-8.91-1.65-1.87 5.66 8.29-1.51-2.62-0.72-2.44 2.46 0.58 0.5 12 1.28 3.44 0.87-9.44-0.99 4.03-0.5 3.65-0.94 0.73 4.18-12.64-0.31-2.24-4.03 9.34 1.16-0.67 0.7-1.21 0.98 1.15-9.48 12.66-0.73 2.7-1.68 1.91-3.32 3.82-5.12 5.61-3.41 3.4-8.64 6.39-1.88 2.12-2.9 1.83-5.74 3.69-8.75 5.34q-2.81 1.58-5.74 2.94 6.56-2.59 1.68-0.73c-14.31 4.53-28.37 8.03-43.12 10.88-4.33 0.83-5.12 3.05 1.25-0.09-2.39 1.18-9.14 0.86-11.79 0.99-4.77 0.25-15.52 2.22-19.51-0.23 4.86 2.98 6.64 1.44 1.54 0.2-3.64-0.9-7.27-1.91-10.92-2.79-10.73-2.6 4.79 3.63-0.35-0.17-2.12-1.57-12.71-9.73-3.95-2.12-19.16-16.65-50.09-20.25-68.67 0-16.77 18.27-20.48 50.88 0 68.68 47.65 41.41 113.55 39.13 171.11 21.75 60.94-18.41 117.76-74 97.91-142.92-9.65-33.53-37.24-59.84-72-65.34-31.69-5.02-62.91-1.79-94.71-3.4-3.2-0.17-6.38-0.52-9.58-0.7 7.21 0.4 1.71 0.34-0.07-0.1-4.59-1.14-13.31-1.93-17.1-4.97 0.75 0.61 9.78 5.06 1.76 0.49-2.08-1.19-4.2-2.25-6.24-3.51-1.26-0.78-4.78-2.57-5.89-3.94 7.11 8.86 1.98 0.71-0.63-1.52-8.23-7 3.95 6.03 0.27 0.58-4.82-7.15-3.04 0.09-0.38 1.28-0.86-0.38-1.42-6.57-1.92-6.36-0.88 0.36 2.32 12.38 0.52 2.78-2.03-10.84 0.55 3.68-0.76 2.49-0.48-0.44 3.78-11.84 0.7-3.96-2.52 6.46 0.44-0.28 1.4-1.87q1.31-2.25 2.87-4.35-5.54 7.03-1.97 3.03c2.23-1.82 4.36-4.25 6.43-6.26 6.79-6.61-7.28 3.61 1.89-1.17 2.15-1.12 4.2-2.59 6.32-3.76 2.46-1.37 12.21-7.31 1.61-1.34 5.98-3.37 13.98-4.85 20.64-6.47 2.93-0.72 5.88-1.28 8.84-1.89 13.7-2.81-8.98 0.13 4.99-0.61 7.54-0.4 15.02-0.67 22.57-0.24q4.51 0.25 9 0.74c-10.26-1.13 2.73 0.71 4.91 1.19q5.52 1.22 10.93 2.82c1.72 0.5 12.79 5.33 7.13 2.23-5.65-3.1 1.27 1.28 2.71 1.91q4.47 2.87-2.35-1.94 5.55 5.84-0.71-1.05c13.45 21.53 43.95 31.92 66.44 17.42 21.57-13.91 31.82-43.39 17.42-66.44z"/>
			</g>
			<g id="&lt;Group&gt;">
				<path id="&lt;Path&gt;" class="s0" d="m1561.11 493.41c-4.88 39.5 20.19 78.95 49.42 103.21 31.76 26.34 68.22 42.22 109.2 47.08 39.32 4.65 79.79-6.88 109.4-33.38 30.53-27.32 44.02-71.63 33.48-111.1-6.56-24.54-34.92-41.95-59.74-33.92-25.2 8.15-40.94 33.43-33.91 59.73q0.65 2.12 1.05 4.29 1.13 5.69-0.75-5.68c-0.74 1-0.06 6.03-0.05 7.26 0.04 5.81 2.68-11.08 0.15-2.84q-0.52 2.15-1.22 4.23-1.78 5.26 2.25-4.71c-1.81 1.26-6.44 10.44-7.5 12.83 1.65-3.73 6.15-7.3 0.8-1.87-0.78 0.8-5.43 3.95-5.49 5.05q8.36-6.25 3.82-3.21-1.99 1.34-4.09 2.5c-1.79 1.02-10.16 3.64-3.11 1.82 7.42-1.92-1.88 0.39-3.49 0.85-1.94 0.56-8.07 1.1-9.64 2.23 2.91-2.09 10.19-0.95 1.39-0.38q-4.16 0.28-8.33 0.24c-3.37-0.03-6.68-0.28-10.03-0.5-9.2-0.61 7.27 1.64 1.31 0.14-5.44-1.37-10.92-2.35-16.31-4.01-2.7-0.83-5.34-1.82-8.02-2.7-10.78-3.54 9.19 4.84-0.89-0.36-5.04-2.6-10.06-5.1-14.89-8.08-2.89-1.79-5.66-3.71-8.47-5.61-7.41-5.03 4.74 4.37 0.45 0.34-4.44-4.18-8.89-8.21-13.17-12.57-4.43-4.5 0.32-0.31 1.34 2.23-1.05-2.59-4-5.7-5.45-8.14q-0.8-1.42-1.6-2.83-2.8-5.74-0.32 0 2.29 5.79 0.1-0.13-0.45-1.52-0.91-3.03-1.33-6.27-0.38 0.29 0.67 6.6 0.16 0.22c0.17-3.19 0.16-6.29 0.56-9.49 1.41-11.46-6.45-26.56-14.23-34.33-8.42-8.42-22.24-14.77-34.33-14.22-12.56 0.56-25.59 4.68-34.34 14.22-9.29 10.12-12.55 20.8-14.22 34.33z"/>
			</g>
			<g id="&lt;Group&gt;">
				<path id="&lt;Path&gt;" class="s0" d="m1593.8 406.67c62.49 0 62.6-97.12 0-97.12-62.49 0-62.59 97.12 0 97.12z"/>
			</g>
			<g id="&lt;Group&gt;">
				<path id="&lt;Path&gt;" class="s0" d="m1820.12 414.47c62.49 0 62.6-97.12 0-97.12-62.49 0-62.59 97.12 0 97.12z"/>
			</g>
		</g>
	</g>
</svg>